<svg xmlns="http://www.w3.org/2000/svg" xmlns:xlink="http://www.w3.org/1999/xlink" version="1.1" width="1080" height="1080" viewBox="92.28 -100.09 1080 1080" xml:space="preserve">
<defs>
</defs>
<rect x="0" y="0" width="100%" height="100%" fill="transparent"></rect>
<g transform="matrix(1 0 0 1 540 540)" id="97489716-1efe-40a5-80a4-1e5e93365a0a"  >
</g>
<g transform="matrix(1 0 0 1 540 540)" id="e6d7bc9d-9fa9-4f83-9f35-e918daacb955"  >
<rect style="stroke: none; stroke-width: 1; stroke-dasharray: none; stroke-linecap: butt; stroke-dashoffset: 0; stroke-linejoin: miter; stroke-miterlimit: 4; fill: rgb(255,255,255); fill-rule: nonzero; opacity: 1; visibility: hidden;" vector-effect="non-scaling-stroke"  x="-540" y="-540" rx="0" ry="0" width="1080" height="1080" />
</g>
<g transform="matrix(1 0 0 1 540 904.07)"  >
<polygon style="stroke: none; stroke-width: 1; stroke-dasharray: none; stroke-linecap: butt; stroke-dashoffset: 0; stroke-linejoin: miter; stroke-miterlimit: 4; fill: rgb(230,230,230); fill-rule: nonzero; opacity: 1;" vector-effect="non-scaling-stroke"  points="443.89,12.77 -191.62,22.36 -443.89,-22.36 -50.07,-22.36 443.89,12.77 " />
</g>
<g transform="matrix(0.89 0 0 0.89 839.52 259.39)"  >
<circle style="stroke: none; stroke-width: 1; stroke-dasharray: none; stroke-linecap: butt; stroke-dashoffset: 0; stroke-linejoin: miter; stroke-miterlimit: 4; fill: rgb(103,103,103); fill-opacity: 0.99; fill-rule: nonzero; opacity: 1;" vector-effect="non-scaling-stroke"  cx="0" cy="0" r="101.66024" />
</g>
<g transform="matrix(1 0 0 1 291.94 873.1)"  >
<path style="stroke: none; stroke-width: 1; stroke-dasharray: none; stroke-linecap: butt; stroke-dashoffset: 0; stroke-linejoin: miter; stroke-miterlimit: 4; fill: rgb(63,61,86); fill-rule: nonzero; opacity: 1;" vector-effect="non-scaling-stroke"  transform=" translate(-351.94, -783.1)" d="M 335.9542 797.01953 C 335.9542 797.01953 337.44120000000004 765.86078 367.92539 769.48253" stroke-linecap="round" />
</g>
<g transform="matrix(1 0 0 1 267.34 842.11)"  >
<circle style="stroke: none; stroke-width: 1; stroke-dasharray: none; stroke-linecap: butt; stroke-dashoffset: 0; stroke-linejoin: miter; stroke-miterlimit: 4; fill: rgb(92,92,92); fill-rule: nonzero; opacity: 1;" vector-effect="non-scaling-stroke"  cx="0" cy="0" r="15.25711" />
</g>
<g transform="matrix(1 0 0 1 267.01 882.88)"  >
<rect style="stroke: none; stroke-width: 1; stroke-dasharray: none; stroke-linecap: butt; stroke-dashoffset: 0; stroke-linejoin: miter; stroke-miterlimit: 4; fill: rgb(63,61,86); fill-rule: nonzero; opacity: 1;" vector-effect="non-scaling-stroke"  x="-2.155" y="-15.075" rx="0" ry="0" width="4.31" height="30.15" />
</g>
<g transform="matrix(1 0 0 1 794.39 878.42)"  >
<path style="stroke: none; stroke-width: 1; stroke-dasharray: none; stroke-linecap: butt; stroke-dashoffset: 0; stroke-linejoin: miter; stroke-miterlimit: 4; fill: rgb(63,61,86); fill-rule: nonzero; opacity: 1;" vector-effect="non-scaling-stroke"  transform=" translate(-854.39, -788.43)" d="M 838.40061 802.34205 C 838.40061 802.34205 839.88761 771.18331 870.3718 774.8050499999999" stroke-linecap="round" />
</g>
<g transform="matrix(1 0 0 1 769.79 847.44)"  >
<circle style="stroke: none; stroke-width: 1; stroke-dasharray: none; stroke-linecap: butt; stroke-dashoffset: 0; stroke-linejoin: miter; stroke-miterlimit: 4; fill: rgb(92,92,92); fill-rule: nonzero; opacity: 1;" vector-effect="non-scaling-stroke"  cx="0" cy="0" r="15.25711" />
</g>
<g transform="matrix(1 0 0 1 769.45 888.21)"  >
<rect style="stroke: none; stroke-width: 1; stroke-dasharray: none; stroke-linecap: butt; stroke-dashoffset: 0; stroke-linejoin: miter; stroke-miterlimit: 4; fill: rgb(63,61,86); fill-rule: nonzero; opacity: 1;" vector-effect="non-scaling-stroke"  x="-2.155" y="-15.075" rx="0" ry="0" width="4.31" height="30.15" />
</g>
<g transform="matrix(1 0 0 1 867.84 883.74)"  >
<path style="stroke: none; stroke-width: 1; stroke-dasharray: none; stroke-linecap: butt; stroke-dashoffset: 0; stroke-linejoin: miter; stroke-miterlimit: 4; fill: rgb(63,61,86); fill-rule: nonzero; opacity: 1;" vector-effect="non-scaling-stroke"  transform=" translate(-927.84, -793.75)" d="M 911.85146 807.66458 C 911.85146 807.66458 913.3384599999999 776.50584 943.8226599999999 780.12758" stroke-linecap="round" />
</g>
<g transform="matrix(1 0 0 1 843.24 852.76)"  >
<circle style="stroke: none; stroke-width: 1; stroke-dasharray: none; stroke-linecap: butt; stroke-dashoffset: 0; stroke-linejoin: miter; stroke-miterlimit: 4; fill: rgb(92,92,92); fill-rule: nonzero; opacity: 1;" vector-effect="non-scaling-stroke"  cx="0" cy="0" r="15.25711" />
</g>
<g transform="matrix(1 0 0 1 842.91 893.53)"  >
<rect style="stroke: none; stroke-width: 1; stroke-dasharray: none; stroke-linecap: butt; stroke-dashoffset: 0; stroke-linejoin: miter; stroke-miterlimit: 4; fill: rgb(63,61,86); fill-rule: nonzero; opacity: 1;" vector-effect="non-scaling-stroke"  x="-2.155" y="-15.075" rx="0" ry="0" width="4.31" height="30.15" />
</g>
<g transform="matrix(1 0 0 1 412.23 858.2)"  >
<path style="stroke: none; stroke-width: 1; stroke-dasharray: none; stroke-linecap: butt; stroke-dashoffset: 0; stroke-linejoin: miter; stroke-miterlimit: 4; fill: rgb(63,61,86); fill-rule: nonzero; opacity: 1;" vector-effect="non-scaling-stroke"  transform=" translate(-472.23, -768.2)" d="M 456.24328 782.11645 C 456.24328 782.11645 457.73028000000005 750.95771 488.21447 754.5794999999999" stroke-linecap="round" />
</g>
<g transform="matrix(1 0 0 1 387.63 827.21)"  >
<circle style="stroke: none; stroke-width: 1; stroke-dasharray: none; stroke-linecap: butt; stroke-dashoffset: 0; stroke-linejoin: miter; stroke-miterlimit: 4; fill: rgb(92,92,92); fill-rule: nonzero; opacity: 1;" vector-effect="non-scaling-stroke"  cx="0" cy="0" r="15.25711" />
</g>
<g transform="matrix(1 0 0 1 387.3 867.98)"  >
<rect style="stroke: none; stroke-width: 1; stroke-dasharray: none; stroke-linecap: butt; stroke-dashoffset: 0; stroke-linejoin: miter; stroke-miterlimit: 4; fill: rgb(63,61,86); fill-rule: nonzero; opacity: 1;" vector-effect="non-scaling-stroke"  x="-2.155" y="-15.075" rx="0" ry="0" width="4.31" height="30.15" />
</g>
<g transform="matrix(1 0 0 1 185.49 863.52)"  >
<path style="stroke: none; stroke-width: 1; stroke-dasharray: none; stroke-linecap: butt; stroke-dashoffset: 0; stroke-linejoin: miter; stroke-miterlimit: 4; fill: rgb(63,61,86); fill-rule: nonzero; opacity: 1;" vector-effect="non-scaling-stroke"  transform=" translate(-245.49, -773.52)" d="M 229.50369 787.439 C 229.50369 787.439 230.99069 756.28026 261.47488 759.9019999999999" stroke-linecap="round" />
</g>
<g transform="matrix(1 0 0 1 160.89 832.53)"  >
<circle style="stroke: none; stroke-width: 1; stroke-dasharray: none; stroke-linecap: butt; stroke-dashoffset: 0; stroke-linejoin: miter; stroke-miterlimit: 4; fill: rgb(92,92,92); fill-rule: nonzero; opacity: 1;" vector-effect="non-scaling-stroke"  cx="0" cy="0" r="15.25711" />
</g>
<g transform="matrix(1 0 0 1 160.56 873.3)"  >
<rect style="stroke: none; stroke-width: 1; stroke-dasharray: none; stroke-linecap: butt; stroke-dashoffset: 0; stroke-linejoin: miter; stroke-miterlimit: 4; fill: rgb(63,61,86); fill-rule: nonzero; opacity: 1;" vector-effect="non-scaling-stroke"  x="-2.155" y="-15.075" rx="0" ry="0" width="4.31" height="30.15" />
</g>
<g transform="matrix(1 0 0 1 538.39 657.07)"  >
<circle style="stroke: none; stroke-width: 1; stroke-dasharray: none; stroke-linecap: butt; stroke-dashoffset: 0; stroke-linejoin: miter; stroke-miterlimit: 4; fill: rgb(63,61,86); fill-rule: nonzero; opacity: 1;" vector-effect="non-scaling-stroke"  cx="0" cy="0" r="166.22823" />
</g>
<g transform="matrix(1 0 0 1 467.5 628.29)"  >
<path style="stroke: none; stroke-width: 1; stroke-dasharray: none; stroke-linecap: butt; stroke-dashoffset: 0; stroke-linejoin: miter; stroke-miterlimit: 4; fill: rgb(255,255,255); fill-rule: nonzero; opacity: 1;" vector-effect="non-scaling-stroke"  transform=" translate(-527.5, -538.28)" d="M 493.73979 580.41025 C 502.09736050209983 570.4048170359273 514.4625434379686 564.6220287288791 527.499325 564.6220287288791 C 540.5361065620315 564.6220287288791 552.9012894979003 570.4048170359273 561.25886 580.41025 C 575.7116169668452 566.6130984313016 580.3141833989098 545.4097570335191 572.8824313884676 526.8621793639791 C 565.4506793780254 508.31460169443915 547.4804054350599 496.15587813449 527.499325 496.15587813449 C 507.51824456494023 496.15587813449 489.54797062197474 508.31460169443915 482.1162186115325 526.8621793639791 C 474.6844666010902 545.409757033519 479.2870330331548 566.6130984313015 493.73978999999997 580.41025 Z" stroke-linecap="round" />
</g>
<g transform="matrix(1 0 0 1 599.5 628.29)"  >
<path style="stroke: none; stroke-width: 1; stroke-dasharray: none; stroke-linecap: butt; stroke-dashoffset: 0; stroke-linejoin: miter; stroke-miterlimit: 4; fill: rgb(255,255,255); fill-rule: nonzero; opacity: 1;" vector-effect="non-scaling-stroke"  transform=" translate(-659.5, -538.28)" d="M 625.74457 580.41025 C 634.1021251700762 570.4048163541295 646.4672977436941 564.6220258396444 659.50407 564.6220258396444 C 672.5408422563058 564.6220258396444 684.9060148299237 570.4048163541295 693.26357 580.41025 C 707.7163262760567 566.6131102491029 712.3188972568535 545.4097788829009 704.8871522134177 526.8622077510719 C 697.4554071699821 508.31463661924295 679.4851417750797 496.15591619746294 659.50407 496.15591619746294 C 639.5229982249202 496.15591619746294 621.5527328300179 508.31463661924295 614.1209877865822 526.8622077510719 C 606.6892427431465 545.4097788829008 611.2918137239432 566.6131102491029 625.74457 580.41025 Z" stroke-linecap="round" />
</g>
<g transform="matrix(1 0 0 1 450.82 618.4)"  >
<circle style="stroke: none; stroke-width: 1; stroke-dasharray: none; stroke-linecap: butt; stroke-dashoffset: 0; stroke-linejoin: miter; stroke-miterlimit: 4; fill: rgb(63,61,86); fill-rule: nonzero; opacity: 1;" vector-effect="non-scaling-stroke"  cx="0" cy="0" r="16.81788" />
</g>
<g transform="matrix(1 0 0 1 582.82 618.4)"  >
<circle style="stroke: none; stroke-width: 1; stroke-dasharray: none; stroke-linecap: butt; stroke-dashoffset: 0; stroke-linejoin: miter; stroke-miterlimit: 4; fill: rgb(63,61,86); fill-rule: nonzero; opacity: 1;" vector-effect="non-scaling-stroke"  cx="0" cy="0" r="16.81788" />
</g>
<g transform="matrix(1 0 0 1 418.61 698.63)"  >
<circle style="stroke: none; stroke-width: 1; stroke-dasharray: none; stroke-linecap: butt; stroke-dashoffset: 0; stroke-linejoin: miter; stroke-miterlimit: 4; fill: rgb(255,101,132); fill-rule: nonzero; opacity: 1;" vector-effect="non-scaling-stroke"  cx="0" cy="0" r="19.55626" />
</g>
<g transform="matrix(1 0 0 1 643.51 698.63)"  >
<circle style="stroke: none; stroke-width: 1; stroke-dasharray: none; stroke-linecap: butt; stroke-dashoffset: 0; stroke-linejoin: miter; stroke-miterlimit: 4; fill: rgb(255,101,132); fill-rule: nonzero; opacity: 1;" vector-effect="non-scaling-stroke"  cx="0" cy="0" r="19.55626" />
</g>
<g transform="matrix(1 0 0 1 528.61 691.29)"  >
<polygon style="stroke: none; stroke-width: 1; stroke-dasharray: none; stroke-linecap: butt; stroke-dashoffset: 0; stroke-linejoin: miter; stroke-miterlimit: 4; fill: rgb(255,101,132); fill-rule: nonzero; opacity: 1;" vector-effect="non-scaling-stroke"  points="2.44,-31.78 -12.22,31.78 12.22,7.33 2.44,-31.78 " />
</g>
<g transform="matrix(1 0 0 1 583.57 855.04)"  >
<polygon style="stroke: none; stroke-width: 1; stroke-dasharray: none; stroke-linecap: butt; stroke-dashoffset: 0; stroke-linejoin: miter; stroke-miterlimit: 4; fill: rgb(63,61,86); fill-rule: nonzero; opacity: 1;" vector-effect="non-scaling-stroke"  points="22.85,48.93 6.2,34.95 6.59,48.93 1.42,48.93 1,34.15 -21.48,48.93 -30.89,48.93 0.83,28.07 -0.39,-15.72 -1.31,-48.79 3.85,-48.93 4.78,-15.72 6.01,28.03 30.89,48.93 22.85,48.93 " />
</g>
<g transform="matrix(1 0 0 1 505.35 855.04)"  >
<polygon style="stroke: none; stroke-width: 1; stroke-dasharray: none; stroke-linecap: butt; stroke-dashoffset: 0; stroke-linejoin: miter; stroke-miterlimit: 4; fill: rgb(63,61,86); fill-rule: nonzero; opacity: 1;" vector-effect="non-scaling-stroke"  points="22.84,48.93 6.19,34.95 6.58,48.93 1.42,48.93 1.01,34.15 -21.47,48.93 -30.89,48.93 0.83,28.07 -0.4,-15.72 -1.32,-48.79 3.85,-48.93 4.78,-15.72 6,28.03 30.89,48.93 22.84,48.93 " />
</g>
<g transform="matrix(1 0 0 1 521.28 493.28)"  >
<path style="stroke: none; stroke-width: 1; stroke-dasharray: none; stroke-linecap: butt; stroke-dashoffset: 0; stroke-linejoin: miter; stroke-miterlimit: 4; fill: rgb(63,61,86); fill-rule: nonzero; opacity: 1;" vector-effect="non-scaling-stroke"  transform=" translate(-581.28, -403.28)" d="M 600.83528 388.61566 C 596.27416 388.61566 592.2504700000001 392.15866 589.56035 397.60066 C 587.18923 389.41751 582.20765 383.72666 576.38995 383.72666 C 575.9945582268192 383.7659639372783 575.6022633810377 383.8318597961309 575.21573 383.9239 C 572.97948 375.1869 567.78217 369.05946 561.72273 369.05946 C 553.62223 369.05946 547.05553 380.00406 547.05553 393.50479 C 547.05553 407.00552000000005 553.62223 417.95012 561.72273 417.95012 C 562.1181219946541 417.91081271006624 562.5104168388879 417.84491351057625 562.89695 417.75287000000003 C 565.1332 426.48987000000005 570.33051 432.61731000000003 576.38995 432.61731000000003 C 580.95107 432.61731000000003 584.97476 429.07431 587.66488 423.63231 C 590.03601 431.81547 595.0175800000001 437.50631000000004 600.83528 437.50631000000004 C 608.93578 437.50631000000004 615.50248 426.56171000000006 615.50248 413.06098000000003 C 615.50248 399.56025 608.93578 388.61566 600.83528 388.61566 Z" stroke-linecap="round" />
</g>
<g transform="matrix(-1 0 0 -1 357.91 658.95)"  >
<path style="stroke: none; stroke-width: 1; stroke-dasharray: none; stroke-linecap: butt; stroke-dashoffset: 0; stroke-linejoin: miter; stroke-miterlimit: 4; fill: rgb(232,232,232); fill-rule: nonzero; opacity: 1;" vector-effect="non-scaling-stroke"  transform=" translate(-417.92, -568.95)" d="M 393.47351 507.83307 L 393.47351 507.83307 C 406.4401059703141 507.83307 418.8756239278315 512.9840301931379 428.0443918673468 522.1527981326532 C 437.21315980686205 531.3215660721685 442.36411999999996 543.7570840296859 442.36411999999996 556.7236800000001 L 442.36411999999996 581.16911 C 442.36411999999996 594.1357059703141 437.2131598068621 606.5712239278316 428.0443918673468 615.7399918673468 C 418.87562392783155 624.9087598068621 406.4401059703141 630.0597200000001 393.47351000000003 630.0597200000001 L 393.47351 630.0597200000001 L 393.47351 507.83307 Z" stroke-linecap="round" />
</g>
<g transform="matrix(1 0 0 1 718.87 658.94)"  >
<path style="stroke: none; stroke-width: 1; stroke-dasharray: none; stroke-linecap: butt; stroke-dashoffset: 0; stroke-linejoin: miter; stroke-miterlimit: 4; fill: rgb(232,232,232); fill-rule: nonzero; opacity: 1;" vector-effect="non-scaling-stroke"  transform=" translate(-622.75, -505.36)" d="M 598.30346 444.24843 L 598.30346 444.24843 C 611.2700577029248 444.2484167391694 623.7055824437524 449.3993655873207 632.8743600475467 458.5681263128403 C 642.0431376513409 467.73688703836 647.1941093913458 480.1724022970728 647.19412 493.139 L 647.19412 517.58443 C 647.19412 530.5510259703141 642.0431598068621 542.9865439278316 632.8743918673468 552.1553118673469 C 623.7056239278315 561.3240798068622 611.270105970314 566.47504 598.30351 566.47504 L 598.30351 566.47504 L 598.30351 444.24843 Z" stroke-linecap="round" />
</g>
<g transform="matrix(1 0 0 1 533.87 557.48)"  >
<path style="stroke: none; stroke-width: 1; stroke-dasharray: none; stroke-linecap: butt; stroke-dashoffset: 0; stroke-linejoin: miter; stroke-miterlimit: 4; fill: rgb(232,232,232); fill-rule: nonzero; opacity: 1;" vector-effect="non-scaling-stroke"  transform=" translate(-593.87, -467.48)" d="M 780.03662 560.56514 L 772.2795 560.56514 C 772.2795 462.18772 692.2438099999999 382.1514000000001 593.86576 382.1514000000001 C 495.48834 382.1514000000001 415.45202000000006 462.18772000000007 415.45202000000006 560.56514 L 407.6949 560.56514 C 407.6949 457.91014000000007 491.21082 374.39428000000004 593.86576 374.39428000000004 C 696.52134 374.39428 780.03662 457.91019 780.03662 560.56514 Z" stroke-linecap="round" />
</g>
<g transform="matrix(1 0 0 1 227.8 521.58)"  >
<polygon style="stroke: none; stroke-width: 1; stroke-dasharray: none; stroke-linecap: butt; stroke-dashoffset: 0; stroke-linejoin: miter; stroke-miterlimit: 4; fill: rgb(63,61,86); fill-rule: nonzero; opacity: 1;" vector-effect="non-scaling-stroke"  points="0,0 0,0 0,0 0,0 " />
</g>
<g transform="matrix(1 0 0 1 252.52 510.1)"  >
<path style="stroke: none; stroke-width: 1; stroke-dasharray: none; stroke-linecap: butt; stroke-dashoffset: 0; stroke-linejoin: miter; stroke-miterlimit: 4; fill: rgb(247,247,247); fill-rule: nonzero; opacity: 1;" vector-effect="non-scaling-stroke"  transform=" translate(-312.52, -420.09)" d="M 327.66117 411.058 L 327.66256000000004 411.0551 L 324.01825 409.53738999999996 L 308.64171000000005 403.03711999999996 L 303.13007000000005 400.70723999999996 L 302.70707000000004 401.77512999999993 L 302.70707000000004 401.77512999999993 L 295.30326 420.46912999999995 L 316.14 429.28836 L 316.2494 429.38742 L 314.84524 432.69824 C 314.65305200643695 433.0010711206855 314.48906417997824 433.3209026139423 314.35534 433.65371 C 313.37176 436.13723999999996 315.22952000000004 438.60765 316.98569000000003 439.30311 C 318.74186000000003 439.99857000000003 320.96299000000005 438.5493 321.94656000000003 436.06577 C 322.91678 433.61602999999997 321.96862000000004 430.50397 320.25719000000004 429.75203999999997 L 320.25870000000003 429.74913999999995 L 316.61439 428.23142999999993 L 304.14763 423.3851199999999 L 311.27088 405.3997799999999 L 310.21508 404.9817199999999 L 303.08931 422.9737199999999 L 301.54777 422.3744299999999 L 308.70140000000004 404.3121999999999 L 308.88983 404.39197999999993 L 323.54393000000005 410.5942999999999 L 323.65321000000006 410.6933599999999 L 322.24921000000006 414.0041799999999 C 322.0569748998617 414.3069825726008 321.8929879880665 414.6268188105582 321.75932000000006 414.9596499999999 C 320.7756100000001 417.44317999999987 322.63337000000007 419.9135899999999 324.38954000000007 420.6090499999999 C 326.14571000000007 421.30450999999994 328.3668400000001 419.8552399999999 329.35041000000007 417.3717099999999 C 330.32064 414.922 329.37248 411.80993 327.66117 411.058 Z" stroke-linecap="round" />
</g>
<g transform="matrix(1 0 0 1 321.14 533.8)"  >
<path style="stroke: none; stroke-width: 1; stroke-dasharray: none; stroke-linecap: butt; stroke-dashoffset: 0; stroke-linejoin: miter; stroke-miterlimit: 4; fill: rgb(247,247,247); fill-rule: nonzero; opacity: 1;" vector-effect="non-scaling-stroke"  transform=" translate(-381.15, -443.79)" d="M 399.78108 456.95208 C 392.21707999999995 452.62744000000004 393.73064 443.13708 393.73064 443.13708 C 393.54032 436.97182000000004 388.44664 437.84449 388.44664 437.84449 L 386.59279 438.26759 C 385.73160592809097 437.8679029487591 384.78331941709905 437.6925278739692 383.83615 437.75777999999997 L 381.01615 438.23229999999995 C 387.43752 439.74107 386.90993 445.11280999999997 386.90993 445.11280999999997 L 387.80956999999995 451.39381 L 370.98374999999993 444.60605999999996 L 372.91561999999993 440.05105999999995 C 373.18263010418525 439.6304634751678 373.41040859575867 439.1862107268921 373.5960799999999 438.72390999999993 C 374.96217999999993 435.27444999999994 372.3819899999999 431.8433999999999 369.9428299999999 430.8774599999999 C 367.5036699999999 429.9112799999999 364.4188299999999 431.92455999999993 363.0526099999999 435.3738899999999 C 361.7051699999999 438.7762099999999 363.0221099999999 443.0985899999999 365.3990099999999 444.1428899999999 L 365.3970099999999 444.1470399999999 L 370.4585799999999 446.2548599999999 L 370.4962699999999 446.1354999999999 Z M 391.23665 445.91608 L 391.77621 451.92808 C 389.8710742112243 449.2548664915647 388.976077668962 445.9924654560411 389.25046 442.72133 C 389.2057489077001 441.55776267353235 388.8132250189871 440.43432118301627 388.12357999999995 439.49609000000004 C 390.2852835702818 440.8810149398388 391.48788321027644 443.36109203761555 391.23665 445.91606 Z" stroke-linecap="round" />
</g>
<g transform="matrix(1 0 0 1 195.54 454.38)"  >
<path style="stroke: none; stroke-width: 1; stroke-dasharray: none; stroke-linecap: butt; stroke-dashoffset: 0; stroke-linejoin: miter; stroke-miterlimit: 4; fill: rgb(247,247,247); fill-rule: nonzero; opacity: 1;" vector-effect="non-scaling-stroke"  transform=" translate(-255.55, -364.38)" d="M 271.4328 368.0405 L 271.4348 368.0365 L 266.37323 365.92856 L 245.21873 357.70515 L 250.55795999999998 352.95488 C 252.72831233581843 350.06151914888494 256.79468031020906 349.39536722848146 259.77479 351.44498 L 258.11793 348.98249999999996 C 258.11793 348.98249999999996 255.0031 344.85875999999996 250.64293 349.22184999999996 C 250.64293 349.22184999999996 245.24812 357.17492 236.77415000000002 355.14763999999997 L 265.71447 367.39664 L 265.86634 367.53427 L 263.9162 372.13254 C 263.64916489871183 372.5531238183864 263.42138201328453 372.99737860756863 263.23573 373.45969 C 261.86964 376.90902 264.44982999999996 380.34007 266.88899 381.30613 C 269.32815 382.27218999999997 272.41299 380.25903 273.77921 376.8097 C 275.12664 373.40733 273.8097 369.085 271.4328 368.0405 Z" stroke-linecap="round" />
</g>
<g transform="matrix(1 0 0 1 283.7 418.21)"  >
<path style="stroke: none; stroke-width: 1; stroke-dasharray: none; stroke-linecap: butt; stroke-dashoffset: 0; stroke-linejoin: miter; stroke-miterlimit: 4; fill: rgb(247,247,247); fill-rule: nonzero; opacity: 1;" vector-effect="non-scaling-stroke"  transform=" translate(-343.7, -328.22)" d="M 348.87976 341.126 L 346.92949 345.72425999999996 C 346.66253843812973 346.14487085787687 346.434801014392 346.5891218528405 346.24915 347.05141 C 344.88293 350.50073999999995 347.46315 353.93179999999995 349.90227999999996 354.89786 C 352.34140999999994 355.86392 355.42639999999994 353.85076 356.79249999999996 350.40143 C 358.14005999999995 346.99911000000003 356.82311999999996 342.67673 354.44622999999996 341.63228 L 354.44822999999997 341.62827999999996 L 349.38665999999995 339.52034 L 332.07156999999995 332.78943 L 341.96494999999993 307.80951 L 340.4986599999999 307.22874 L 330.60149999999993 332.21799 L 328.4604999999999 331.38578 L 338.39609999999993 306.29898000000003 L 338.6578799999999 306.40976 L 359.01087999999993 315.02414 L 359.1628799999999 315.16177 L 357.2127 319.76 C 356.945774155079 320.1806255687582 356.71803797155707 320.6248741444133 356.53236 321.08715 C 355.16614 324.53661 357.74636 327.96766 360.18548999999996 328.93372 C 362.62461999999994 329.89977999999996 365.70960999999994 327.88662 367.07570999999996 324.43716 C 368.42326999999995 321.03485 367.10632999999996 316.71247 364.72943 315.66816 L 364.73143 315.664 L 359.66985999999997 313.55619 L 338.98511 304.812 L 338.98511 304.812 L 338.98423 304.81162 L 338.31335 304.52804000000003 L 330.65822000000003 301.29196 L 319.78756000000004 328.73940000000005 L 348.72776000000005 340.98840000000007 Z M 330.07075999999995 302.77526 Z" stroke-linecap="round" />
</g>
<g transform="matrix(1 0 0 1 169.82 284.26)"  >
<path style="stroke: none; stroke-width: 1; stroke-dasharray: none; stroke-linecap: butt; stroke-dashoffset: 0; stroke-linejoin: miter; stroke-miterlimit: 4; fill: rgb(247,247,247); fill-rule: nonzero; opacity: 1;" vector-effect="non-scaling-stroke"  transform=" translate(-229.82, -194.26)" d="M 257.16744 200.55646 L 257.17097 200.5494 L 248.45778 196.92084 L 212.04156 182.76457 L 221.23267 174.58729 C 221.23267 174.58729 227.34638 166.10449 237.09886 171.98819 L 234.24686 167.74912 C 234.24686 167.74912 228.88469 160.65019 221.37905 168.16101 C 221.37905 168.16101 212.09215 181.85183 197.50471000000002 178.36201 L 247.32364 199.44782 L 247.58516 199.68482 L 244.22809 207.60045 C 243.7685076171186 208.3245263705424 243.37640386535705 209.0892855119106 243.05672 209.88509 C 240.70503000000002 215.82299 245.14663000000002 221.72938 249.34549 223.39240999999998 C 253.54435 225.05543999999998 258.85485 221.58984999999998 261.20666 215.65195999999997 C 263.52617 209.795 261.25917 202.35435 257.16744 200.55646 Z" stroke-linecap="round" />
</g>
<g transform="matrix(1 0 0 1 179.35 378.01)"  >
<path style="stroke: none; stroke-width: 1; stroke-dasharray: none; stroke-linecap: butt; stroke-dashoffset: 0; stroke-linejoin: miter; stroke-miterlimit: 4; fill: rgb(247,247,247); fill-rule: nonzero; opacity: 1;" vector-effect="non-scaling-stroke"  transform=" translate(-239.35, -288.01)" d="M 283.90741 319.4701 C 265.82250000000005 309.13017 269.44147000000004 286.43981 269.44147000000004 286.43981 C 268.98647000000005 271.69911 256.80771000000004 273.78575 256.80771000000004 273.78575 L 252.37530000000004 274.79718 C 250.31629912288264 273.84151650910854 248.04902612145722 273.4221786075328 245.78442000000004 273.57818000000003 L 239.04192000000003 274.71287 C 254.39492000000004 278.32025 253.13353000000004 291.16361 253.13353000000004 291.16361 L 255.28445000000005 306.18071 L 215.05545000000006 289.95191 L 219.67438000000007 279.06109 C 220.31272573137912 278.0554518376433 220.85734711345583 276.99330289934437 221.30138000000008 275.88802999999996 C 224.5677100000001 267.64079 218.39867000000007 259.43740999999994 212.56677000000008 257.12769 C 206.7348700000001 254.81797 199.35929000000007 259.63124999999997 196.09296000000006 267.87836999999996 C 192.87112000000008 276.01304999999996 196.01974000000007 286.34756 201.70279000000005 288.84443999999996 L 201.69800000000004 288.85427 L 213.79977000000002 293.89403999999996 L 213.88988000000003 293.60869999999994 Z M 263.47841000000005 293.084 L 264.77292000000006 307.50785 C 257.17728000000005 297.42491 258.72978000000006 285.44552000000004 258.72978000000006 285.44552000000004 C 258.622732484916 282.6635810839761 257.6842644849716 279.9775928401786 256.03553000000005 277.73431000000005 C 264.76078 282.95569 263.47837 293.084 263.47837 293.084 Z" stroke-linecap="round" />
</g>
<g transform="matrix(0.48 0.87 -0.87 0.48 705.91 366.67)"  >
<path style="stroke: none; stroke-width: 1; stroke-dasharray: none; stroke-linecap: butt; stroke-dashoffset: 0; stroke-linejoin: miter; stroke-miterlimit: 4; fill: rgb(247,247,247); fill-rule: nonzero; opacity: 1;" vector-effect="non-scaling-stroke"  transform=" translate(-255.55, -364.38)" d="M 271.4328 368.0405 L 271.4348 368.0365 L 266.37323 365.92856 L 245.21873 357.70515 L 250.55795999999998 352.95488 C 252.72831233581843 350.06151914888494 256.79468031020906 349.39536722848146 259.77479 351.44498 L 258.11793 348.98249999999996 C 258.11793 348.98249999999996 255.0031 344.85875999999996 250.64293 349.22184999999996 C 250.64293 349.22184999999996 245.24812 357.17492 236.77415000000002 355.14763999999997 L 265.71447 367.39664 L 265.86634 367.53427 L 263.9162 372.13254 C 263.64916489871183 372.5531238183864 263.42138201328453 372.99737860756863 263.23573 373.45969 C 261.86964 376.90902 264.44982999999996 380.34007 266.88899 381.30613 C 269.32815 382.27218999999997 272.41299 380.25903 273.77921 376.8097 C 275.12664 373.40733 273.8097 369.085 271.4328 368.0405 Z" stroke-linecap="round" />
</g>
<g transform="matrix(0.48 0.87 -0.87 0.48 764.31 472.47)"  >
<path style="stroke: none; stroke-width: 1; stroke-dasharray: none; stroke-linecap: butt; stroke-dashoffset: 0; stroke-linejoin: miter; stroke-miterlimit: 4; fill: rgb(247,247,247); fill-rule: nonzero; opacity: 1;" vector-effect="non-scaling-stroke"  transform=" translate(-343.7, -328.22)" d="M 348.87976 341.126 L 346.92949 345.72425999999996 C 346.66253843812973 346.14487085787687 346.434801014392 346.5891218528405 346.24915 347.05141 C 344.88293 350.50073999999995 347.46315 353.93179999999995 349.90227999999996 354.89786 C 352.34140999999994 355.86392 355.42639999999994 353.85076 356.79249999999996 350.40143 C 358.14005999999995 346.99911000000003 356.82311999999996 342.67673 354.44622999999996 341.63228 L 354.44822999999997 341.62827999999996 L 349.38665999999995 339.52034 L 332.07156999999995 332.78943 L 341.96494999999993 307.80951 L 340.4986599999999 307.22874 L 330.60149999999993 332.21799 L 328.4604999999999 331.38578 L 338.39609999999993 306.29898000000003 L 338.6578799999999 306.40976 L 359.01087999999993 315.02414 L 359.1628799999999 315.16177 L 357.2127 319.76 C 356.945774155079 320.1806255687582 356.71803797155707 320.6248741444133 356.53236 321.08715 C 355.16614 324.53661 357.74636 327.96766 360.18548999999996 328.93372 C 362.62461999999994 329.89977999999996 365.70960999999994 327.88662 367.07570999999996 324.43716 C 368.42326999999995 321.03485 367.10632999999996 316.71247 364.72943 315.66816 L 364.73143 315.664 L 359.66985999999997 313.55619 L 338.98511 304.812 L 338.98511 304.812 L 338.98423 304.81162 L 338.31335 304.52804000000003 L 330.65822000000003 301.29196 L 319.78756000000004 328.73940000000005 L 348.72776000000005 340.98840000000007 Z M 330.07075999999995 302.77526 Z" stroke-linecap="round" />
</g>
<g transform="matrix(0.1 0.69 -0.69 0.1 757.71 418.16)"  >
<path style="stroke: none; stroke-width: 1; stroke-dasharray: none; stroke-linecap: butt; stroke-dashoffset: 0; stroke-linejoin: miter; stroke-miterlimit: 4; fill: rgb(247,247,247); fill-rule: nonzero; opacity: 1;" vector-effect="non-scaling-stroke"  transform=" translate(-255.55, -364.38)" d="M 271.4328 368.0405 L 271.4348 368.0365 L 266.37323 365.92856 L 245.21873 357.70515 L 250.55795999999998 352.95488 C 252.72831233581843 350.06151914888494 256.79468031020906 349.39536722848146 259.77479 351.44498 L 258.11793 348.98249999999996 C 258.11793 348.98249999999996 255.0031 344.85875999999996 250.64293 349.22184999999996 C 250.64293 349.22184999999996 245.24812 357.17492 236.77415000000002 355.14763999999997 L 265.71447 367.39664 L 265.86634 367.53427 L 263.9162 372.13254 C 263.64916489871183 372.5531238183864 263.42138201328453 372.99737860756863 263.23573 373.45969 C 261.86964 376.90902 264.44982999999996 380.34007 266.88899 381.30613 C 269.32815 382.27218999999997 272.41299 380.25903 273.77921 376.8097 C 275.12664 373.40733 273.8097 369.085 271.4328 368.0405 Z" stroke-linecap="round" />
</g>
<g transform="matrix(NaN NaN NaN NaN 0 0)"  >
<g style=""   >
</g>
</g>
<g transform="matrix(NaN NaN NaN NaN 0 0)"  >
<g style=""   >
</g>
</g>
<g transform="matrix(NaN NaN NaN NaN 0 0)"  >
<g style=""   >
</g>
</g>
<g transform="matrix(NaN NaN NaN NaN 0 0)"  >
<g style=""   >
</g>
</g>
<g transform="matrix(NaN NaN NaN NaN 0 0)"  >
<g style=""   >
</g>
</g>
<g transform="matrix(NaN NaN NaN NaN 0 0)"  >
<g style=""   >
</g>
</g>
<g transform="matrix(NaN NaN NaN NaN 0 0)"  >
<g style=""   >
</g>
</g>
<g transform="matrix(NaN NaN NaN NaN 0 0)"  >
<g style=""   >
</g>
</g>
<g transform="matrix(NaN NaN NaN NaN 0 0)"  >
<g style=""   >
</g>
</g>
<g transform="matrix(NaN NaN NaN NaN 0 0)"  >
<g style=""   >
</g>
</g>
<g transform="matrix(NaN NaN NaN NaN 0 0)"  >
<g style=""   >
</g>
</g>
<g transform="matrix(NaN NaN NaN NaN 0 0)"  >
<g style=""   >
</g>
</g>
<g transform="matrix(NaN NaN NaN NaN 0 0)"  >
<g style=""   >
</g>
</g>
</svg>